<?xml version="1.0" encoding="utf-8"?>
<!-- Generator: Adobe Illustrator 17.0.0, SVG Export Plug-In . SVG Version: 6.00 Build 0)  -->
<!DOCTYPE svg PUBLIC "-//W3C//DTD SVG 1.1//EN" "http://www.w3.org/Graphics/SVG/1.1/DTD/svg11.dtd">
<svg version="1.1" id="Layer_1" xmlns="http://www.w3.org/2000/svg" xmlns:xlink="http://www.w3.org/1999/xlink" x="0px" y="0px"
	 width="689.127px" height="696.081px" viewBox="0 0 689.127 696.081" enable-background="new 0 0 689.127 696.081"
	 xml:space="preserve">
<g>
	<g>
		<g>
			<path fill="none" stroke="#FFFFFF" stroke-width="18" stroke-miterlimit="10" d="M643.584,349.564
				c0-165.214-133.807-306.767-299.021-306.767S43,184.35,43,349.564s136.35,291.928,301.564,291.928
				S643.584,514.778,643.584,349.564z"/>
		</g>
		<g>
			<g>
				<path fill="#FFFFFF" d="M285.988,228.352c17.099-4.444,36.87-7.15,59.733-7.428c97.73-0.745,151.003,53.273,151.376,67.803
					c0.372,14.529-7.823,21.98-13.039,25.333c-1.122,2.29,0.838,3.965,3.81,4.601c8.479,1.815,23.386-0.13,23.386-0.13
					s17.417-0.808,26.481-3.023c3.021-0.738,3.702-2.574,3.285-4.241c-6.505-7.463-7.71-7.411-12.872-16.953
					c-5.043-9.324-57.874-99.467-181.185-96.859c-22.648,0.479-43.076,3.001-61.418,7.21c-0.024,6.397,0.143,12.303,0.283,17.17
					C285.899,224.284,285.962,226.475,285.988,228.352z"/>
				<path fill="#FFFFFF" d="M404.295,471.952c-62.088,18.09-135.988,7.104-183.748-37.438
					c-26.326-24.836-45.202-58.116-43.712-86.429c0,0,3.067-64.315,64.807-101.474c-0.414-5.365-0.816-10.037-1.165-13.842
					c-0.359-3.911-0.598-7.999-0.803-12.225c-51.112,24.833-77.73,66.653-84.943,110.652c-11.921,2.794-20.49,8.568-20.49,14.901
					c0,4.098,7.078,10.804,19.248,14.405c6.457,10.928,16.888,138.088,202.663,143.553c17.593,0.003,33.423-1.757,47.67-4.852
					c0.307-2.934,0.473-5.99,0.473-9.195V471.952z"/>
				<path fill="#FFFFFF" d="M484.058,366.166c4.496,5.977,31.767,40.984-28.065,81.759c-2.691,1.834-5.451,3.583-8.263,5.266
					l1.75,29.304c61.822-33.528,76.855-94.955,79.078-100.823c2.054-5.421,9.036-11.582,12.871-15.505
					c0-1.484-0.688-2.511-2.493-2.984c-20.877-5.47-42.552-2.492-51.75-0.417C485.296,363.192,483.853,365.016,484.058,366.166z"/>
			</g>
			<g>
				<path fill="#FFFFFF" d="M445.027,142.476c3.411-1.319,1.106-6.889,0.668-10.01c-0.897-4.886-3.34-6.67-7.348-5.335
					c-14.26,4.896-29.846,5.116-46.766,0.668c-4.009-0.887-6.462,0.23-7.349,3.341c-0.898,3.11,3.45,7.674,5.538,9.383
					c8.662,7.087,14.304,25.794,17.962,53.463c7.412,1.829,14.669,4.037,21.756,6.62C430.446,168.7,434.295,146.626,445.027,142.476
					z"/>
				<path fill="#FFFFFF" d="M414.295,375.942c0,15.126,0,36.254,0,63.375c0,24.458,0,41.359,0,50.691
					c0,21.796-6.576,38.697-19.708,50.702c-13.142,12.004-30.179,18.007-51.109,18.007c-36.587,0-58.289-18.557-65.121-55.668
					c-8.329-2.328-16.316-5.008-23.939-8.058c2.224,18.682,6.513,33.705,12.898,45.019c13.362,23.165,36.516,34.74,69.482,34.74
					c28.498,0,52.111-5.564,70.817-16.681c8.947-5.224,16.067-11.378,21.366-18.458c5.685,18.449,16.63,33.463,21.005,35.139
					c8.381-1.439,26.451-12.318,27.117-27.652c-27.605,0.908-35.795-39.685-36.575-43.924c0.007-1.902-0.046-3.835-0.177-5.808
					l-8.685-145.424c0-36.587-1.482-73.407-2.136-105.786c-5.419-2.212-11.345-4.331-17.778-6.251
					C413.855,277.679,414.295,324.063,414.295,375.942z"/>
				<path fill="#FFFFFF" d="M254.622,389.022c0,7.13-0.334,18.936-1.002,35.408c-0.336,8.281-0.587,15.549-0.754,21.805
					c7.306,4.336,15.038,8.119,23.135,11.316V230.017c0-17.371-5.565-80.495,22.047-94.869c3.577-1.862-0.668-6.681-3.341-8.017
					c-29.845,11.138-49.887,16.034-60.128,14.699c-3.57,0.897-5.126,3.121-4.677,6.68c1.335,3.57,4.126,5.378,6.867,8.013
					c13.858,13.324,11.344,50,13.667,75.333c2.333,25.452,4.186,57.621,4.186,88.353L254.622,389.022L254.622,389.022z"/>
			</g>
		</g>
	</g>
</g>
</svg>
